<?xml version="1.0" encoding="UTF-8" standalone="no"?>
<!DOCTYPE svg PUBLIC "-//W3C//DTD SVG 1.1//EN"
 "http://www.w3.org/Graphics/SVG/1.1/DTD/svg11.dtd">
<!-- Generated by graphviz version 14.1.2 (20260124.0452)
 -->
<!-- Title: Arquitectura_Oraculum Pages: 1 -->
<svg width="802pt" height="44pt"
 viewBox="0.00 0.00 802.00 44.00" xmlns="http://www.w3.org/2000/svg" xmlns:xlink="http://www.w3.org/1999/xlink">
<g id="graph0" class="graph" transform="scale(1 1) rotate(0) translate(4 40)">
<title>Arquitectura_Oraculum</title>
<polygon fill="#1e1e1e" stroke="none" points="-4,4 -4,-40 797.5,-40 797.5,4 -4,4"/>
<!-- U -->
<g id="node1" class="node">
<title>U</title>
<polygon fill="#3c3c3c" stroke="#aaaaaa" points="58.75,-36 0,-36 0,0 58.75,0 58.75,-36"/>
<text xml:space="preserve" text-anchor="middle" x="29.38" y="-12.95" font-family="Times New Roman,serif" font-size="14.00" fill="#f0f0f0">Usuario</text>
</g>
<!-- API -->
<g id="node2" class="node">
<title>API</title>
<polygon fill="#3c3c3c" stroke="#aaaaaa" points="206.75,-36 94.75,-36 94.75,0 206.75,0 206.75,-36"/>
<text xml:space="preserve" text-anchor="middle" x="150.75" y="-12.95" font-family="Times New Roman,serif" font-size="14.00" fill="#f0f0f0">Rutas / API Flask</text>
</g>
<!-- U&#45;&gt;API -->
<g id="edge1" class="edge">
<title>U&#45;&gt;API</title>
<path fill="none" stroke="#aaaaaa" d="M58.97,-18C66.45,-18 74.84,-18 83.41,-18"/>
<polygon fill="#aaaaaa" stroke="#aaaaaa" points="83.21,-21.5 93.21,-18 83.21,-14.5 83.21,-21.5"/>
</g>
<!-- S -->
<g id="node3" class="node">
<title>S</title>
<polygon fill="#3c3c3c" stroke="#aaaaaa" points="357,-36 242.75,-36 242.75,0 357,0 357,-36"/>
<text xml:space="preserve" text-anchor="middle" x="299.88" y="-12.95" font-family="Times New Roman,serif" font-size="14.00" fill="#f0f0f0">Capa de Servicios</text>
</g>
<!-- API&#45;&gt;S -->
<g id="edge2" class="edge">
<title>API&#45;&gt;S</title>
<path fill="none" stroke="#aaaaaa" d="M206.95,-18C214.82,-18 222.99,-18 231.07,-18"/>
<polygon fill="#aaaaaa" stroke="#aaaaaa" points="230.87,-21.5 240.87,-18 230.87,-14.5 230.87,-21.5"/>
</g>
<!-- E -->
<g id="node4" class="node">
<title>E</title>
<polygon fill="#3c3c3c" stroke="#aaaaaa" points="514.75,-36 393,-36 393,0 514.75,0 514.75,-36"/>
<text xml:space="preserve" text-anchor="middle" x="453.88" y="-12.95" font-family="Times New Roman,serif" font-size="14.00" fill="#f0f0f0">Engines Oraculares</text>
</g>
<!-- S&#45;&gt;E -->
<g id="edge3" class="edge">
<title>S&#45;&gt;E</title>
<path fill="none" stroke="#aaaaaa" d="M357.47,-18C365.28,-18 373.37,-18 381.4,-18"/>
<polygon fill="#aaaaaa" stroke="#aaaaaa" points="381.15,-21.5 391.15,-18 381.15,-14.5 381.15,-21.5"/>
</g>
<!-- M -->
<g id="node5" class="node">
<title>M</title>
<polygon fill="#3c3c3c" stroke="#aaaaaa" points="663.5,-36 550.75,-36 550.75,0 663.5,0 663.5,-36"/>
<text xml:space="preserve" text-anchor="middle" x="607.12" y="-12.95" font-family="Times New Roman,serif" font-size="14.00" fill="#f0f0f0">Modelos / Lógica</text>
</g>
<!-- E&#45;&gt;M -->
<g id="edge4" class="edge">
<title>E&#45;&gt;M</title>
<path fill="none" stroke="#aaaaaa" d="M515.09,-18C523.04,-18 531.23,-18 539.28,-18"/>
<polygon fill="#aaaaaa" stroke="#aaaaaa" points="539.02,-21.5 549.02,-18 539.02,-14.5 539.02,-21.5"/>
</g>
<!-- DB -->
<g id="node6" class="node">
<title>DB</title>
<polygon fill="#3c3c3c" stroke="#aaaaaa" points="793.5,-36 699.5,-36 699.5,0 793.5,0 793.5,-36"/>
<text xml:space="preserve" text-anchor="middle" x="746.5" y="-12.95" font-family="Times New Roman,serif" font-size="14.00" fill="#f0f0f0">Base de Datos</text>
</g>
<!-- M&#45;&gt;DB -->
<g id="edge5" class="edge">
<title>M&#45;&gt;DB</title>
<path fill="none" stroke="#aaaaaa" d="M663.6,-18C671.51,-18 679.66,-18 687.61,-18"/>
<polygon fill="#aaaaaa" stroke="#aaaaaa" points="687.55,-21.5 697.55,-18 687.55,-14.5 687.55,-21.5"/>
</g>
</g>
</svg>
