<?xml version="1.0" encoding="UTF-8" standalone="no"?>
<!DOCTYPE svg PUBLIC "-//W3C//DTD SVG 1.1//EN"
 "http://www.w3.org/Graphics/SVG/1.1/DTD/svg11.dtd">
<!-- Generated by graphviz version 14.1.2 (20260124.0452)
 -->
<!-- Title: Clases_Oraculum Pages: 1 -->
<svg width="373pt" height="718pt"
 viewBox="0.00 0.00 373.00 718.00" xmlns="http://www.w3.org/2000/svg" xmlns:xlink="http://www.w3.org/1999/xlink">
<g id="graph0" class="graph" transform="scale(1 1) rotate(0) translate(4 713.5)">
<title>Clases_Oraculum</title>
<polygon fill="#1e1e1e" stroke="none" points="-4,4 -4,-713.5 369.25,-713.5 369.25,4 -4,4"/>
<!-- Usuario -->
<g id="node1" class="node">
<title>Usuario</title>
<polygon fill="#3c3c3c" stroke="#aaaaaa" points="112.25,-602.5 112.25,-709 215.25,-709 215.25,-602.5 112.25,-602.5"/>
<text xml:space="preserve" text-anchor="middle" x="163.75" y="-691.7" font-family="Times New Roman,serif" font-size="14.00" fill="#f0f0f0">Usuario</text>
<polyline fill="none" stroke="#aaaaaa" points="112.25,-684.5 215.25,-684.5"/>
<text xml:space="preserve" text-anchor="start" x="120.25" y="-667.2" font-family="Times New Roman,serif" font-size="14.00" fill="#f0f0f0">+nombre:String</text>
<text xml:space="preserve" text-anchor="start" x="120.25" y="-650.7" font-family="Times New Roman,serif" font-size="14.00" fill="#f0f0f0">+email:String</text>
<polyline fill="none" stroke="#aaaaaa" points="112.25,-643.5 215.25,-643.5"/>
<text xml:space="preserve" text-anchor="start" x="120.25" y="-626.2" font-family="Times New Roman,serif" font-size="14.00" fill="#f0f0f0">+login()</text>
<text xml:space="preserve" text-anchor="middle" x="163.75" y="-609.7" font-family="Times New Roman,serif" font-size="14.00" fill="#f0f0f0">+logout()</text>
</g>
<!-- API -->
<g id="node2" class="node">
<title>API</title>
<polygon fill="#3c3c3c" stroke="#aaaaaa" points="99.12,-492 99.12,-565.5 228.38,-565.5 228.38,-492 99.12,-492"/>
<text xml:space="preserve" text-anchor="middle" x="163.75" y="-548.2" font-family="Times New Roman,serif" font-size="14.00" fill="#f0f0f0">API Flask</text>
<polyline fill="none" stroke="#aaaaaa" points="99.12,-541 228.38,-541"/>
<text xml:space="preserve" text-anchor="middle" x="163.75" y="-523.7" font-family="Times New Roman,serif" font-size="14.00" fill="#f0f0f0"> </text>
<polyline fill="none" stroke="#aaaaaa" points="99.12,-516.5 228.38,-516.5"/>
<text xml:space="preserve" text-anchor="middle" x="163.75" y="-499.2" font-family="Times New Roman,serif" font-size="14.00" fill="#f0f0f0">+procesar_peticion()</text>
</g>
<!-- Usuario&#45;&gt;API -->
<g id="edge1" class="edge">
<title>Usuario&#45;&gt;API</title>
<path fill="none" stroke="#aaaaaa" d="M163.75,-602.1C163.75,-593.76 163.75,-585.17 163.75,-576.96"/>
<polygon fill="#aaaaaa" stroke="#aaaaaa" points="167.25,-577.18 163.75,-567.18 160.25,-577.18 167.25,-577.18"/>
</g>
<!-- Servicios -->
<g id="node3" class="node">
<title>Servicios</title>
<polygon fill="#3c3c3c" stroke="#aaaaaa" points="124.25,-365 124.25,-455 203.25,-455 203.25,-365 124.25,-365"/>
<text xml:space="preserve" text-anchor="middle" x="163.75" y="-437.7" font-family="Times New Roman,serif" font-size="14.00" fill="#f0f0f0">Servicios</text>
<polyline fill="none" stroke="#aaaaaa" points="124.25,-430.5 203.25,-430.5"/>
<text xml:space="preserve" text-anchor="middle" x="163.75" y="-413.2" font-family="Times New Roman,serif" font-size="14.00" fill="#f0f0f0"> </text>
<polyline fill="none" stroke="#aaaaaa" points="124.25,-406 203.25,-406"/>
<text xml:space="preserve" text-anchor="start" x="132.25" y="-388.7" font-family="Times New Roman,serif" font-size="14.00" fill="#f0f0f0">+validar()</text>
<text xml:space="preserve" text-anchor="middle" x="163.75" y="-372.2" font-family="Times New Roman,serif" font-size="14.00" fill="#f0f0f0">+procesar()</text>
</g>
<!-- API&#45;&gt;Servicios -->
<g id="edge2" class="edge">
<title>API&#45;&gt;Servicios</title>
<path fill="none" stroke="#aaaaaa" d="M163.75,-491.77C163.75,-483.85 163.75,-475.27 163.75,-466.78"/>
<polygon fill="#aaaaaa" stroke="#aaaaaa" points="167.25,-466.82 163.75,-456.82 160.25,-466.82 167.25,-466.82"/>
</g>
<!-- Tarot -->
<g id="node4" class="node">
<title>Tarot</title>
<polygon fill="#3c3c3c" stroke="#aaaaaa" points="0,-254.5 0,-328 89.5,-328 89.5,-254.5 0,-254.5"/>
<text xml:space="preserve" text-anchor="middle" x="44.75" y="-310.7" font-family="Times New Roman,serif" font-size="14.00" fill="#f0f0f0">Tarot Engine</text>
<polyline fill="none" stroke="#aaaaaa" points="0,-303.5 89.5,-303.5"/>
<text xml:space="preserve" text-anchor="middle" x="44.75" y="-286.2" font-family="Times New Roman,serif" font-size="14.00" fill="#f0f0f0"> </text>
<polyline fill="none" stroke="#aaaaaa" points="0,-279 89.5,-279"/>
<text xml:space="preserve" text-anchor="middle" x="44.75" y="-261.7" font-family="Times New Roman,serif" font-size="14.00" fill="#f0f0f0">+interpretar()</text>
</g>
<!-- Servicios&#45;&gt;Tarot -->
<g id="edge3" class="edge">
<title>Servicios&#45;&gt;Tarot</title>
<path fill="none" stroke="#aaaaaa" d="M123.79,-369.8C112.82,-359.03 100.84,-347.28 89.61,-336.27"/>
<polygon fill="#aaaaaa" stroke="#aaaaaa" points="92.26,-333.96 82.67,-329.45 87.36,-338.96 92.26,-333.96"/>
</g>
<!-- Astrologia -->
<g id="node5" class="node">
<title>Astrologia</title>
<polygon fill="#3c3c3c" stroke="#aaaaaa" points="107.75,-254.5 107.75,-328 219.75,-328 219.75,-254.5 107.75,-254.5"/>
<text xml:space="preserve" text-anchor="middle" x="163.75" y="-310.7" font-family="Times New Roman,serif" font-size="14.00" fill="#f0f0f0">Astrology Engine</text>
<polyline fill="none" stroke="#aaaaaa" points="107.75,-303.5 219.75,-303.5"/>
<text xml:space="preserve" text-anchor="middle" x="163.75" y="-286.2" font-family="Times New Roman,serif" font-size="14.00" fill="#f0f0f0"> </text>
<polyline fill="none" stroke="#aaaaaa" points="107.75,-279 219.75,-279"/>
<text xml:space="preserve" text-anchor="middle" x="163.75" y="-261.7" font-family="Times New Roman,serif" font-size="14.00" fill="#f0f0f0">+interpretar()</text>
</g>
<!-- Servicios&#45;&gt;Astrologia -->
<g id="edge4" class="edge">
<title>Servicios&#45;&gt;Astrologia</title>
<path fill="none" stroke="#aaaaaa" d="M163.75,-364.53C163.75,-356.38 163.75,-347.85 163.75,-339.62"/>
<polygon fill="#aaaaaa" stroke="#aaaaaa" points="167.25,-339.78 163.75,-329.78 160.25,-339.78 167.25,-339.78"/>
</g>
<!-- Numerologia -->
<g id="node6" class="node">
<title>Numerologia</title>
<polygon fill="#3c3c3c" stroke="#aaaaaa" points="238.25,-254.5 238.25,-328 365.25,-328 365.25,-254.5 238.25,-254.5"/>
<text xml:space="preserve" text-anchor="middle" x="301.75" y="-310.7" font-family="Times New Roman,serif" font-size="14.00" fill="#f0f0f0">Numerology Engine</text>
<polyline fill="none" stroke="#aaaaaa" points="238.25,-303.5 365.25,-303.5"/>
<text xml:space="preserve" text-anchor="middle" x="301.75" y="-286.2" font-family="Times New Roman,serif" font-size="14.00" fill="#f0f0f0"> </text>
<polyline fill="none" stroke="#aaaaaa" points="238.25,-279 365.25,-279"/>
<text xml:space="preserve" text-anchor="middle" x="301.75" y="-261.7" font-family="Times New Roman,serif" font-size="14.00" fill="#f0f0f0">+interpretar()</text>
</g>
<!-- Servicios&#45;&gt;Numerologia -->
<g id="edge5" class="edge">
<title>Servicios&#45;&gt;Numerologia</title>
<path fill="none" stroke="#aaaaaa" d="M203.67,-375.23C218.31,-362.84 235.09,-348.65 250.58,-335.54"/>
<polygon fill="#aaaaaa" stroke="#aaaaaa" points="252.5,-338.5 257.88,-329.37 247.98,-333.15 252.5,-338.5"/>
</g>
<!-- Modelos -->
<g id="node7" class="node">
<title>Modelos</title>
<polygon fill="#3c3c3c" stroke="#aaaaaa" points="96.12,-127.5 96.12,-217.5 231.38,-217.5 231.38,-127.5 96.12,-127.5"/>
<text xml:space="preserve" text-anchor="middle" x="163.75" y="-200.2" font-family="Times New Roman,serif" font-size="14.00" fill="#f0f0f0">Modelos</text>
<polyline fill="none" stroke="#aaaaaa" points="96.12,-193 231.38,-193"/>
<text xml:space="preserve" text-anchor="middle" x="163.75" y="-175.7" font-family="Times New Roman,serif" font-size="14.00" fill="#f0f0f0"> </text>
<polyline fill="none" stroke="#aaaaaa" points="96.12,-168.5 231.38,-168.5"/>
<text xml:space="preserve" text-anchor="start" x="104.12" y="-151.2" font-family="Times New Roman,serif" font-size="14.00" fill="#f0f0f0">+guardar()</text>
<text xml:space="preserve" text-anchor="middle" x="163.75" y="-134.7" font-family="Times New Roman,serif" font-size="14.00" fill="#f0f0f0">+calcular_promedio()</text>
</g>
<!-- Tarot&#45;&gt;Modelos -->
<g id="edge6" class="edge">
<title>Tarot&#45;&gt;Modelos</title>
<path fill="none" stroke="#aaaaaa" d="M81.42,-254.27C90.6,-245.27 100.63,-235.42 110.44,-225.81"/>
<polygon fill="#aaaaaa" stroke="#aaaaaa" points="112.83,-228.36 117.51,-218.86 107.92,-223.37 112.83,-228.36"/>
</g>
<!-- Astrologia&#45;&gt;Modelos -->
<g id="edge7" class="edge">
<title>Astrologia&#45;&gt;Modelos</title>
<path fill="none" stroke="#aaaaaa" d="M163.75,-254.27C163.75,-246.35 163.75,-237.77 163.75,-229.28"/>
<polygon fill="#aaaaaa" stroke="#aaaaaa" points="167.25,-229.32 163.75,-219.32 160.25,-229.32 167.25,-229.32"/>
</g>
<!-- Numerologia&#45;&gt;Modelos -->
<g id="edge8" class="edge">
<title>Numerologia&#45;&gt;Modelos</title>
<path fill="none" stroke="#aaaaaa" d="M259.22,-254.27C248.36,-245.09 236.48,-235.03 224.89,-225.23"/>
<polygon fill="#aaaaaa" stroke="#aaaaaa" points="227.17,-222.57 217.27,-218.78 222.64,-227.91 227.17,-222.57"/>
</g>
<!-- DB -->
<g id="node8" class="node">
<title>DB</title>
<polygon fill="#3c3c3c" stroke="#aaaaaa" points="116.75,-0.5 116.75,-90.5 210.75,-90.5 210.75,-0.5 116.75,-0.5"/>
<text xml:space="preserve" text-anchor="middle" x="163.75" y="-73.2" font-family="Times New Roman,serif" font-size="14.00" fill="#f0f0f0">Base de Datos</text>
<polyline fill="none" stroke="#aaaaaa" points="116.75,-66 210.75,-66"/>
<text xml:space="preserve" text-anchor="middle" x="163.75" y="-48.7" font-family="Times New Roman,serif" font-size="14.00" fill="#f0f0f0"> </text>
<polyline fill="none" stroke="#aaaaaa" points="116.75,-41.5 210.75,-41.5"/>
<text xml:space="preserve" text-anchor="start" x="124.75" y="-24.2" font-family="Times New Roman,serif" font-size="14.00" fill="#f0f0f0">+insert()</text>
<text xml:space="preserve" text-anchor="middle" x="163.75" y="-7.7" font-family="Times New Roman,serif" font-size="14.00" fill="#f0f0f0">+query()</text>
</g>
<!-- Modelos&#45;&gt;DB -->
<g id="edge9" class="edge">
<title>Modelos&#45;&gt;DB</title>
<path fill="none" stroke="#aaaaaa" d="M163.75,-127.08C163.75,-118.97 163.75,-110.42 163.75,-102.04"/>
<polygon fill="#aaaaaa" stroke="#aaaaaa" points="167.25,-102.29 163.75,-92.29 160.25,-102.29 167.25,-102.29"/>
</g>
</g>
</svg>
