<?xml version="1.0" encoding="UTF-8" standalone="no"?>
<!DOCTYPE svg PUBLIC "-//W3C//DTD SVG 1.1//EN"
 "http://www.w3.org/Graphics/SVG/1.1/DTD/svg11.dtd">
<!-- Generated by graphviz version 14.1.2 (20260124.0452)
 -->
<!-- Title: DB_Oraculum Pages: 1 -->
<svg width="99pt" height="346pt"
 viewBox="0.00 0.00 99.00 346.00" xmlns="http://www.w3.org/2000/svg" xmlns:xlink="http://www.w3.org/1999/xlink">
<g id="graph0" class="graph" transform="scale(1 1) rotate(0) translate(4 341.5)">
<title>DB_Oraculum</title>
<polygon fill="#1e1e1e" stroke="none" points="-4,4 -4,-341.5 95,-341.5 95,4 -4,4"/>
<!-- Usuario -->
<g id="node1" class="node">
<title>Usuario</title>
<polygon fill="#3c3c3c" stroke="#aaaaaa" points="7.88,-255 7.88,-337 83.12,-337 83.12,-255 7.88,-255"/>
<text xml:space="preserve" text-anchor="middle" x="45.5" y="-319.7" font-family="Times New Roman,serif" font-size="14.00" fill="#f0f0f0">Usuario</text>
<polyline fill="none" stroke="#aaaaaa" points="7.88,-312.5 83.12,-312.5"/>
<text xml:space="preserve" text-anchor="start" x="15.88" y="-295.2" font-family="Times New Roman,serif" font-size="14.00" fill="#f0f0f0">id:int</text>
<text xml:space="preserve" text-anchor="start" x="15.88" y="-278.7" font-family="Times New Roman,serif" font-size="14.00" fill="#f0f0f0">nombre:str</text>
<text xml:space="preserve" text-anchor="middle" x="45.5" y="-262.2" font-family="Times New Roman,serif" font-size="14.00" fill="#f0f0f0">email:str</text>
</g>
<!-- Lectura -->
<g id="node2" class="node">
<title>Lectura</title>
<polygon fill="#3c3c3c" stroke="#aaaaaa" points="0,-119.5 0,-218 91,-218 91,-119.5 0,-119.5"/>
<text xml:space="preserve" text-anchor="middle" x="45.5" y="-200.7" font-family="Times New Roman,serif" font-size="14.00" fill="#f0f0f0">Lectura</text>
<polyline fill="none" stroke="#aaaaaa" points="0,-193.5 91,-193.5"/>
<text xml:space="preserve" text-anchor="start" x="8" y="-176.2" font-family="Times New Roman,serif" font-size="14.00" fill="#f0f0f0">id:int</text>
<text xml:space="preserve" text-anchor="start" x="8" y="-159.7" font-family="Times New Roman,serif" font-size="14.00" fill="#f0f0f0">usuario_id:int</text>
<text xml:space="preserve" text-anchor="start" x="8" y="-143.2" font-family="Times New Roman,serif" font-size="14.00" fill="#f0f0f0">tipo:str</text>
<text xml:space="preserve" text-anchor="middle" x="45.5" y="-126.7" font-family="Times New Roman,serif" font-size="14.00" fill="#f0f0f0">fecha:date</text>
</g>
<!-- Usuario&#45;&gt;Lectura -->
<g id="edge1" class="edge">
<title>Usuario&#45;&gt;Lectura</title>
<path fill="none" stroke="#aaaaaa" d="M45.5,-254.68C45.5,-246.72 45.5,-238.2 45.5,-229.74"/>
<polygon fill="#aaaaaa" stroke="#aaaaaa" points="49,-229.83 45.5,-219.83 42,-229.83 49,-229.83"/>
</g>
<!-- Resultado -->
<g id="node3" class="node">
<title>Resultado</title>
<polygon fill="#3c3c3c" stroke="#aaaaaa" points="1.5,-0.5 1.5,-82.5 89.5,-82.5 89.5,-0.5 1.5,-0.5"/>
<text xml:space="preserve" text-anchor="middle" x="45.5" y="-65.2" font-family="Times New Roman,serif" font-size="14.00" fill="#f0f0f0">Resultado</text>
<polyline fill="none" stroke="#aaaaaa" points="1.5,-58 89.5,-58"/>
<text xml:space="preserve" text-anchor="start" x="9.5" y="-40.7" font-family="Times New Roman,serif" font-size="14.00" fill="#f0f0f0">id:int</text>
<text xml:space="preserve" text-anchor="start" x="9.5" y="-24.2" font-family="Times New Roman,serif" font-size="14.00" fill="#f0f0f0">lectura_id:int</text>
<text xml:space="preserve" text-anchor="middle" x="45.5" y="-7.7" font-family="Times New Roman,serif" font-size="14.00" fill="#f0f0f0">detalle:str</text>
</g>
<!-- Lectura&#45;&gt;Resultado -->
<g id="edge2" class="edge">
<title>Lectura&#45;&gt;Resultado</title>
<path fill="none" stroke="#aaaaaa" d="M45.5,-119.33C45.5,-111 45.5,-102.31 45.5,-93.91"/>
<polygon fill="#aaaaaa" stroke="#aaaaaa" points="49,-94.19 45.5,-84.19 42,-94.19 49,-94.19"/>
</g>
</g>
</svg>
