<?xml version="1.0" encoding="UTF-8" standalone="no"?>
<!DOCTYPE svg PUBLIC "-//W3C//DTD SVG 1.1//EN"
 "http://www.w3.org/Graphics/SVG/1.1/DTD/svg11.dtd">
<!-- Generated by graphviz version 14.1.2 (20260124.0452)
 -->
<!-- Title: Flujo_Oraculum Pages: 1 -->
<svg width="545pt" height="44pt"
 viewBox="0.00 0.00 545.00 44.00" xmlns="http://www.w3.org/2000/svg" xmlns:xlink="http://www.w3.org/1999/xlink">
<g id="graph0" class="graph" transform="scale(1 1) rotate(0) translate(4 40)">
<title>Flujo_Oraculum</title>
<polygon fill="#1e1e1e" stroke="none" points="-4,4 -4,-40 540.5,-40 540.5,4 -4,4"/>
<!-- Usuario -->
<g id="node1" class="node">
<title>Usuario</title>
<polygon fill="#3c3c3c" stroke="#aaaaaa" points="58.75,-36 0,-36 0,0 58.75,0 58.75,-36"/>
<text xml:space="preserve" text-anchor="middle" x="29.38" y="-12.95" font-family="Times New Roman,serif" font-size="14.00" fill="#f0f0f0">Usuario</text>
</g>
<!-- API -->
<g id="node2" class="node">
<title>API</title>
<polygon fill="#3c3c3c" stroke="#aaaaaa" points="148.75,-36 94.75,-36 94.75,0 148.75,0 148.75,-36"/>
<text xml:space="preserve" text-anchor="middle" x="121.75" y="-12.95" font-family="Times New Roman,serif" font-size="14.00" fill="#f0f0f0">API</text>
</g>
<!-- Usuario&#45;&gt;API -->
<g id="edge1" class="edge">
<title>Usuario&#45;&gt;API</title>
<path fill="none" stroke="#aaaaaa" d="M58.97,-18C66.61,-18 74.99,-18 83.05,-18"/>
<polygon fill="#aaaaaa" stroke="#aaaaaa" points="82.97,-21.5 92.97,-18 82.97,-14.5 82.97,-21.5"/>
</g>
<!-- Servicios -->
<g id="node3" class="node">
<title>Servicios</title>
<polygon fill="#3c3c3c" stroke="#aaaaaa" points="251,-36 184.75,-36 184.75,0 251,0 251,-36"/>
<text xml:space="preserve" text-anchor="middle" x="217.88" y="-12.95" font-family="Times New Roman,serif" font-size="14.00" fill="#f0f0f0">Servicios</text>
</g>
<!-- API&#45;&gt;Servicios -->
<g id="edge2" class="edge">
<title>API&#45;&gt;Servicios</title>
<path fill="none" stroke="#aaaaaa" d="M149.22,-18C156.69,-18 165.01,-18 173.2,-18"/>
<polygon fill="#aaaaaa" stroke="#aaaaaa" points="173.07,-21.5 183.07,-18 173.07,-14.5 173.07,-21.5"/>
</g>
<!-- Engines -->
<g id="node4" class="node">
<title>Engines</title>
<polygon fill="#3c3c3c" stroke="#aaaaaa" points="346.5,-36 287,-36 287,0 346.5,0 346.5,-36"/>
<text xml:space="preserve" text-anchor="middle" x="316.75" y="-12.95" font-family="Times New Roman,serif" font-size="14.00" fill="#f0f0f0">Engines</text>
</g>
<!-- Servicios&#45;&gt;Engines -->
<g id="edge3" class="edge">
<title>Servicios&#45;&gt;Engines</title>
<path fill="none" stroke="#aaaaaa" d="M251.4,-18C259.08,-18 267.37,-18 275.35,-18"/>
<polygon fill="#aaaaaa" stroke="#aaaaaa" points="275.21,-21.5 285.21,-18 275.21,-14.5 275.21,-21.5"/>
</g>
<!-- Modelos -->
<g id="node5" class="node">
<title>Modelos</title>
<polygon fill="#3c3c3c" stroke="#aaaaaa" points="446.5,-36 382.5,-36 382.5,0 446.5,0 446.5,-36"/>
<text xml:space="preserve" text-anchor="middle" x="414.5" y="-12.95" font-family="Times New Roman,serif" font-size="14.00" fill="#f0f0f0">Modelos</text>
</g>
<!-- Engines&#45;&gt;Modelos -->
<g id="edge4" class="edge">
<title>Engines&#45;&gt;Modelos</title>
<path fill="none" stroke="#aaaaaa" d="M347,-18C354.46,-18 362.64,-18 370.63,-18"/>
<polygon fill="#aaaaaa" stroke="#aaaaaa" points="370.59,-21.5 380.59,-18 370.59,-14.5 370.59,-21.5"/>
</g>
<!-- DB -->
<g id="node6" class="node">
<title>DB</title>
<polygon fill="#3c3c3c" stroke="#aaaaaa" points="536.5,-36 482.5,-36 482.5,0 536.5,0 536.5,-36"/>
<text xml:space="preserve" text-anchor="middle" x="509.5" y="-12.95" font-family="Times New Roman,serif" font-size="14.00" fill="#f0f0f0">DB</text>
</g>
<!-- Modelos&#45;&gt;DB -->
<g id="edge5" class="edge">
<title>Modelos&#45;&gt;DB</title>
<path fill="none" stroke="#aaaaaa" d="M446.99,-18C454.54,-18 462.7,-18 470.51,-18"/>
<polygon fill="#aaaaaa" stroke="#aaaaaa" points="470.49,-21.5 480.49,-18 470.49,-14.5 470.49,-21.5"/>
</g>
</g>
</svg>
