<?xml version="1.0" encoding="UTF-8" standalone="no"?>
<!DOCTYPE svg PUBLIC "-//W3C//DTD SVG 1.1//EN"
 "http://www.w3.org/Graphics/SVG/1.1/DTD/svg11.dtd">
<!-- Generated by graphviz version 14.1.2 (20260124.0452)
 -->
<!-- Title: Paquetes_Oraculum Pages: 1 -->
<svg width="444pt" height="44pt"
 viewBox="0.00 0.00 444.00 44.00" xmlns="http://www.w3.org/2000/svg" xmlns:xlink="http://www.w3.org/1999/xlink">
<g id="graph0" class="graph" transform="scale(1 1) rotate(0) translate(4 40)">
<title>Paquetes_Oraculum</title>
<polygon fill="#1e1e1e" stroke="none" points="-4,4 -4,-40 439.75,-40 439.75,4 -4,4"/>
<!-- Routes -->
<g id="node1" class="node">
<title>Routes</title>
<polygon fill="#3c3c3c" stroke="#aaaaaa" points="54,-36 51,-40 30,-40 27,-36 0,-36 0,0 54,0 54,-36"/>
<text xml:space="preserve" text-anchor="middle" x="27" y="-12.95" font-family="Times New Roman,serif" font-size="14.00" fill="#f0f0f0">routes/</text>
</g>
<!-- Services -->
<g id="node2" class="node">
<title>Services</title>
<polygon fill="#3c3c3c" stroke="#aaaaaa" points="153.25,-36 150.25,-40 129.25,-40 126.25,-36 90,-36 90,0 153.25,0 153.25,-36"/>
<text xml:space="preserve" text-anchor="middle" x="121.62" y="-12.95" font-family="Times New Roman,serif" font-size="14.00" fill="#f0f0f0">services/</text>
</g>
<!-- Routes&#45;&gt;Services -->
<g id="edge1" class="edge">
<title>Routes&#45;&gt;Services</title>
<path fill="none" stroke="#aaaaaa" d="M54.29,-18C61.78,-18 70.14,-18 78.32,-18"/>
<polygon fill="#aaaaaa" stroke="#aaaaaa" points="78.16,-21.5 88.16,-18 78.16,-14.5 78.16,-21.5"/>
</g>
<!-- Engines -->
<g id="node3" class="node">
<title>Engines</title>
<polygon fill="#3c3c3c" stroke="#aaaaaa" points="250.25,-36 247.25,-40 226.25,-40 223.25,-36 189.25,-36 189.25,0 250.25,0 250.25,-36"/>
<text xml:space="preserve" text-anchor="middle" x="219.75" y="-12.95" font-family="Times New Roman,serif" font-size="14.00" fill="#f0f0f0">engines/</text>
</g>
<!-- Services&#45;&gt;Engines -->
<g id="edge2" class="edge">
<title>Services&#45;&gt;Engines</title>
<path fill="none" stroke="#aaaaaa" d="M153.57,-18C161.16,-18 169.42,-18 177.42,-18"/>
<polygon fill="#aaaaaa" stroke="#aaaaaa" points="177.33,-21.5 187.33,-18 177.33,-14.5 177.33,-21.5"/>
</g>
<!-- Models -->
<g id="node4" class="node">
<title>Models</title>
<polygon fill="#3c3c3c" stroke="#aaaaaa" points="345.75,-36 342.75,-40 321.75,-40 318.75,-36 286.25,-36 286.25,0 345.75,0 345.75,-36"/>
<text xml:space="preserve" text-anchor="middle" x="316" y="-12.95" font-family="Times New Roman,serif" font-size="14.00" fill="#f0f0f0">models/</text>
</g>
<!-- Engines&#45;&gt;Models -->
<g id="edge3" class="edge">
<title>Engines&#45;&gt;Models</title>
<path fill="none" stroke="#aaaaaa" d="M250.57,-18C258.18,-18 266.49,-18 274.53,-18"/>
<polygon fill="#aaaaaa" stroke="#aaaaaa" points="274.5,-21.5 284.5,-18 274.5,-14.5 274.5,-21.5"/>
</g>
<!-- DB -->
<g id="node5" class="node">
<title>DB</title>
<polygon fill="#3c3c3c" stroke="#aaaaaa" points="435.75,-36 432.75,-40 411.75,-40 408.75,-36 381.75,-36 381.75,0 435.75,0 435.75,-36"/>
<text xml:space="preserve" text-anchor="middle" x="408.75" y="-12.95" font-family="Times New Roman,serif" font-size="14.00" fill="#f0f0f0">db/</text>
</g>
<!-- Models&#45;&gt;DB -->
<g id="edge4" class="edge">
<title>Models&#45;&gt;DB</title>
<path fill="none" stroke="#aaaaaa" d="M346.21,-18C353.8,-18 362.09,-18 370.04,-18"/>
<polygon fill="#aaaaaa" stroke="#aaaaaa" points="369.84,-21.5 379.84,-18 369.84,-14.5 369.84,-21.5"/>
</g>
</g>
</svg>
